<!DOCTYPE svg PUBLIC "-//W3C//DTD SVG 1.1//EN" "http://www.w3.org/Graphics/SVG/1.1/DTD/svg11.dtd"><svg version="1.1" id="Layer_1" xmlns="http://www.w3.org/2000/svg" xmlns:xlink="http://www.w3.org/1999/xlink" x="0px" y="0px"
	 viewBox="0 0 33.6 15" enable-background="new 0 0 33.6 15" xml:space="preserve"><g><path fill="#1B1B1B" d="M8.3,15c-2.5,0-5.1,0-7.6,0c-0.4,0-0.4,0-0.5-0.4c-0.3-1.4-0.1-2.8,0.4-4.1c0.4-1,1.1-1.8,1.8-2.6
		c1.1-1.1,2.4-2,3.7-2.6c1.6-0.8,3.4-1.4,5.2-1.8c0.4-0.1,0.4-0.1,0.4-0.5c0-0.8,0-1.5,0-2.3c0-0.2,0.1-0.3,0.3-0.4
		c0.6-0.1,1.3-0.2,1.9-0.2C14.7,0.1,15.3,0,16,0c0.3,0,0.4,0,0.4,0.3c0,0.8,0,1.6,0,2.4c0,0.2,0.1,0.3,0.3,0.3
		c1.6,0,3.1,0.1,4.7,0.4c2.1,0.4,4.2,1,6.1,1.9c1.2,0.6,2.3,1.3,3.3,2.2c1.1,1,2,2.1,2.5,3.6c0.2,0.7,0.4,1.4,0.4,2.1
		c0,0.5-0.1,1-0.1,1.4c0,0.3-0.1,0.4-0.4,0.4c-5.1,0-10.3,0-15.4,0c-0.3,0-0.4-0.1-0.4-0.4c0-2.6,0-5.2,0-7.7c0-0.3,0.1-0.4,0.4-0.4
		c1.3,0.1,2.6,0.2,3.9,0.5c0.4,0.1,0.4,0.1,0.4,0.5c0,1.3,0,2.5,0,3.8c0,0.3,0,0.3,0.3,0.3c1.6,0,3.2,0,4.8,0c0.3,0,0.3,0,0.2-0.3
		c-0.4-1.5-1.2-2.8-2.4-3.7c-1.2-0.9-2.6-1.4-4.1-1.7c-1.1-0.2-2.1-0.3-3.2-0.3c-0.3,0-0.6,0-0.8,0c-0.3,0-0.3,0-0.3,0.3
		c0,1.3,0,2.6,0,3.9c0,1.6,0,3.2,0,4.8c0,0.3-0.1,0.4-0.4,0.4C13.4,15,10.9,15,8.3,15z M9,11.6c0.8,0,1.6,0,2.5,0
		c0.2,0,0.3,0,0.3-0.2c0-1.6,0-3.3,0-4.9c0-0.2,0-0.2-0.2-0.2c-0.7,0.2-1.4,0.5-2,0.8C7.9,8,6.8,9.4,6.4,11.3
		c-0.1,0.2,0,0.3,0.2,0.3C7.4,11.6,8.2,11.6,9,11.6z"/></g></svg>
