<!DOCTYPE svg PUBLIC "-//W3C//DTD SVG 1.1//EN" "http://www.w3.org/Graphics/SVG/1.1/DTD/svg11.dtd"><svg version="1.1" id="Layer_1" xmlns="http://www.w3.org/2000/svg" xmlns:xlink="http://www.w3.org/1999/xlink" x="0px" y="0px"
	 viewBox="0 0 17 17" enable-background="new 0 0 17 17" xml:space="preserve"><path fill-rule="evenodd" clip-rule="evenodd" fill="#1B1B1B" d="M8.5,0C3.8,0,0,3.8,0,8.5S3.8,17,8.5,17S17,13.2,17,8.5
	S13.2,0,8.5,0z M12.6,13.9c-0.1-0.8-0.5-2.4-1.2-4.4c0.4,0,0.8-0.1,1.1-0.1c1.2,0,2.2,0.2,2.7,0.3C14.9,11.4,14,12.9,12.6,13.9z
	 M8.9,8.3C8.9,8.3,8.9,8.3,8.9,8.3c-3.2,1-5.1,3.6-5.7,4.5c-1-1.2-1.5-2.7-1.5-4.3c0.9,0,3.8-0.1,6.9-1C8.7,7.8,8.8,8.1,8.9,8.3z
	 M9.6,5.5C8.7,3.8,7.7,2.4,7.3,1.8c2-0.4,4,0.2,5.6,1.5C12.5,3.7,11.5,4.7,9.6,5.5z M9.6,10c0.8,2.2,1.2,4.1,1.4,4.9
	c-0.8,0.3-1.6,0.5-2.5,0.5c-1.5,0-2.8-0.5-4-1.3C4.9,13.3,6.3,11.2,9.6,10z M10.8,8c0-0.1-0.1-0.1-0.1-0.2c-0.1-0.3-0.2-0.5-0.4-0.8
	c2-0.9,3.2-2,3.6-2.5c0.8,1.1,1.3,2.4,1.3,3.7c-0.5-0.1-1.7-0.3-3-0.3C11.8,7.9,11.3,7.9,10.8,8z M1.9,6.8c0.5-1.9,1.8-3.5,3.5-4.4
	c0.4,0.5,1.4,1.9,2.3,3.6C5.1,6.7,2.8,6.8,1.9,6.8z"/></svg>