<!DOCTYPE svg PUBLIC "-//W3C//DTD SVG 1.1//EN" "http://www.w3.org/Graphics/SVG/1.1/DTD/svg11.dtd"><svg version="1.1" id="Layer_1" xmlns="http://www.w3.org/2000/svg" xmlns:xlink="http://www.w3.org/1999/xlink" x="0px" y="0px"
	 viewBox="0 0 102.7 46" enable-background="new 0 0 102.7 46" xml:space="preserve"><g><path fill="none" stroke="#FFFFFF" stroke-width="2" stroke-miterlimit="10" d="M69.1,42.4C63.7,44,57.8,45,51.3,45
		c-6.4,0-12.4-1-17.7-2.6"/><path fill="none" stroke="#FFFFFF" stroke-width="2" stroke-miterlimit="10" d="M33.6,3.6C39,2,44.9,1,51.3,1
		c6.4,0,12.4,1,17.7,2.6"/><path fill="none" stroke="#FFFFFF" stroke-width="2" stroke-miterlimit="10" d="M25.2,23c0-7.7,3.2-14.6,8.4-19.4
		C13.6,9.4,1.3,23,1.3,23s12.3,13.6,32.3,19.4C28.4,37.6,25.2,30.7,25.2,23z"/>
	<path fill="none" stroke="#FFFFFF" stroke-width="2" stroke-miterlimit="10" d="M101.3,23c0,0-12.3-13.6-32.3-19.4
		c5.2,4.8,8.4,11.8,8.4,19.4c0,7.7-3.2,14.6-8.4,19.4C89.1,36.6,101.3,23,101.3,23z"/><path fill="none" stroke="#FFFFFF" stroke-width="2" stroke-miterlimit="10" d="M77.5,23c0-7.7-3.2-14.6-8.4-19.4
		C63.7,2,57.8,1,51.3,1C44.9,1,39,2,33.6,3.6c-5.2,4.8-8.4,11.8-8.4,19.4c0,7.7,3.2,14.6,8.4,19.4C39,44,44.9,45,51.3,45
		c6.4,0,12.4-1,17.7-2.6C74.3,37.6,77.5,30.7,77.5,23z M51.3,33.6c-5.8,0-10.4-4.7-10.4-10.6c0-5.8,4.7-10.6,10.4-10.6
		c5.8,0,10.4,4.7,10.4,10.6C61.8,28.8,57.1,33.6,51.3,33.6z"/><ellipse fill="none" stroke="#FFFFFF" stroke-width="2" stroke-miterlimit="10" cx="51.3" cy="23" rx="10.4" ry="10.6"/></g></svg>
