<!DOCTYPE svg PUBLIC "-//W3C//DTD SVG 1.1//EN" "http://www.w3.org/Graphics/SVG/1.1/DTD/svg11.dtd"><svg version="1.1" id="Layer_1" xmlns="http://www.w3.org/2000/svg" xmlns:xlink="http://www.w3.org/1999/xlink" x="0px" y="0px"
	 viewBox="0 0 11.4 17" enable-background="new 0 0 11.4 17" xml:space="preserve"><g id="Google"><g><path fill="#1B1B1C" d="M8.6,9.5L7.8,9C7.6,8.8,7.5,8.6,7.5,8.3c0-0.3,0.2-0.5,0.4-0.7l0-0.1c0.8-0.6,1.9-1.7,1.9-3.5
			c0-0.9-1.8-1.7-2.4-2.9h2V0H6.3c-1.1,0-2.6,0.4-4,1.4c-0.9,0.8-1.5,2-1.5,3.2c0,1.8,1.3,3.7,3.9,3.7c0.1,0,0.1,0,0.2,0
			c0,0.1,0,0.3,0,0.4c0,0.5,0.1,0.9,0.4,1.1c-1.1,0.1-2.5,0.3-3.5,1c-1.6,1-1.8,2.4-1.8,2.8c0,1.7,1.5,3.4,4.8,3.3
			c3.8,0,6.6-2.1,6.6-4.3C11.3,11.1,9.6,10.4,8.6,9.5L8.6,9.5z M5.7,15.7c-2,0-3.3-1-3.3-2.3c0-1.2,1-1.7,1.5-1.9
			c0.9-0.3,2-0.4,2-0.4l0,0h0.1c0.1,0,0.3,0,0.4,0c1.6,1.1,2.1,1.7,2.1,2.6C8.4,14.8,7.4,15.7,5.7,15.7L5.7,15.7L5.7,15.7z M3.4,3.6
			c0,0,0.1-1,0.4-1.3C4,2,4.5,1.8,5,1.8c1.4,0,2.3,2.1,2.3,3.5c0,0.6-0.1,1-0.4,1.3C6.5,6.9,6.1,7,5.7,7C4.1,7.1,3.4,4.9,3.4,3.6
			L3.4,3.6z"/></g></g></svg>