<!DOCTYPE svg PUBLIC "-//W3C//DTD SVG 1.1//EN" "http://www.w3.org/Graphics/SVG/1.1/DTD/svg11.dtd"><svg version="1.1" id="Layer_1" xmlns="http://www.w3.org/2000/svg" xmlns:xlink="http://www.w3.org/1999/xlink" x="0px" y="0px"
	 viewBox="0 0 16 16" enable-background="new 0 0 16 16" xml:space="preserve">
<g><defs><rect id="SVGID_1_" y="0" width="16" height="16"/></defs><clipPath id="SVGID_2_"><use xlink:href="#SVGID_1_"  overflow="visible"/></clipPath><path clip-path="url(#SVGID_2_)" fill-rule="evenodd" clip-rule="evenodd" fill="#1B1B1C" d="M14.1,6.8h-1.4
		c0.1,0.4,0.2,0.8,0.2,1.2c0,2.7-2.2,4.9-4.9,4.9c-2.7,0-4.9-2.2-4.9-4.9c0-0.4,0.1-0.8,0.2-1.2H1.8v6.8c0,0.3,0.3,0.6,0.6,0.6h11.1
		c0.3,0,0.6-0.3,0.6-0.6V6.8z M14.1,2.5c0-0.3-0.3-0.6-0.6-0.6h-1.8c-0.3,0-0.6,0.3-0.6,0.6v1.8c0,0.3,0.3,0.6,0.6,0.6h1.8
		c0.3,0,0.6-0.3,0.6-0.6V2.5z M8,4.9C6.3,4.9,4.9,6.3,4.9,8c0,1.7,1.4,3.1,3.1,3.1s3.1-1.4,3.1-3.1C11.1,6.3,9.7,4.9,8,4.9 M14.1,16
		H1.8c-1,0-1.8-0.8-1.8-1.8V1.8C0,0.8,0.8,0,1.8,0h12.3c1,0,1.8,0.8,1.8,1.8v12.3C16,15.1,15.1,16,14.1,16"/></g></svg>