<!DOCTYPE svg PUBLIC "-//W3C//DTD SVG 1.1//EN" "http://www.w3.org/Graphics/SVG/1.1/DTD/svg11.dtd"><svg version="1.1" id="Layer_1" xmlns="http://www.w3.org/2000/svg" xmlns:xlink="http://www.w3.org/1999/xlink" x="0px" y="0px"
	 viewBox="0 0 15 15" enable-background="new 0 0 15 15" xml:space="preserve"><path fill="#1B1B1C" d="M0.2,5h3.1v10H0.2V5z M1.8,0c1,0,1.8,0.8,1.8,1.8c0,1-0.8,1.8-1.8,1.8C0.8,3.6,0,2.8,0,1.8
	C0,0.8,0.8,0,1.8,0"/><path fill="#1B1B1C" d="M5.3,5h3v1.4h0c0.4-0.8,1.4-1.6,2.9-1.6c3.2,0,3.7,2.1,3.7,4.8V15h-3.1v-4.9c0-1.2,0-2.7-1.6-2.7
	c-1.6,0-1.9,1.3-1.9,2.6v5H5.3V5z"/></svg>