<!DOCTYPE svg PUBLIC "-//W3C//DTD SVG 1.1//EN" "http://www.w3.org/Graphics/SVG/1.1/DTD/svg11.dtd"><svg version="1.1" id="Layer_1" xmlns="http://www.w3.org/2000/svg" xmlns:xlink="http://www.w3.org/1999/xlink" x="0px" y="0px"
	 viewBox="0 0 16.8 17" enable-background="new 0 0 16.8 17" xml:space="preserve"><g><path fill="#1B1B1C" d="M8.4,0C3.8,0,0,3.8,0,8.4c0,3.5,2.1,6.5,5.1,7.7c0-0.6,0-1.3,0.1-1.9c0.2-0.7,1.1-4.6,1.1-4.6S6,9.1,6,8.3
		C6,7,6.7,6.1,7.7,6.1c0.8,0,1.1,0.6,1.1,1.3c0,0.8-0.5,1.9-0.7,3C7.8,11.4,8.5,12,9.3,12C10.9,12,12,10,12,7.6
		c0-1.9-1.2-3.2-3.5-3.2c-2.6,0-4.2,1.9-4.2,4c0,0.8,0.2,1.2,0.6,1.7c0.2,0.2,0.2,0.3,0.1,0.5c0,0.2-0.1,0.5-0.2,0.7
		c-0.1,0.2-0.2,0.3-0.4,0.2c-1.2-0.5-1.7-1.8-1.7-3.2c0-2.4,2-5.3,6-5.3c3.2,0,5.3,2.3,5.3,4.9c0,3.3-1.8,5.8-4.6,5.8
		c-0.9,0-1.8-0.5-2.1-1.1c0,0-0.5,1.9-0.6,2.3c-0.2,0.6-0.5,1.3-0.9,1.8C6.8,16.8,7.6,17,8.3,17c4.7,0,8.4-3.8,8.4-8.4
		C16.9,3.8,13.1,0,8.4,0z"/></g></svg>
