<!DOCTYPE svg PUBLIC "-//W3C//DTD SVG 1.1//EN" "http://www.w3.org/Graphics/SVG/1.1/DTD/svg11.dtd"><svg version="1.1" id="Layer_1" xmlns="http://www.w3.org/2000/svg" xmlns:xlink="http://www.w3.org/1999/xlink" x="0px" y="0px"
	 viewBox="0 0 62.1 16" enable-background="new 0 0 62.1 16" xml:space="preserve"><g><path fill="#1B1B1C" d="M6.6,2.5C6.6,2.6,6.5,2.7,6.4,2.7C6.3,2.7,5.3,1.9,4,1.9c-0.8,0-1.6,0.3-1.6,1.4c0,1.3,2,1.6,3.6,2.7
		c0.9,0.7,1.5,1.6,1.5,2.9c0,2.2-1.6,3.7-3.8,3.7c-1.8,0-3.7-0.8-3.7-1.1c0-0.1,0.1-0.2,0.1-0.3l0.4-1.2c0-0.1,0.1-0.2,0.2-0.2
		c0.1,0,1.4,0.8,2.9,0.8c1,0,1.6-0.5,1.6-1.6c0-1.6-1.8-1.7-3.6-2.8C0.7,5.7,0.1,5,0.1,3.6C0.1,1.1,1.9,0,3.9,0
		c1.7,0,3.4,0.8,3.4,1.1c0,0.1,0,0.1-0.1,0.3L6.6,2.5z"/></g><g><path fill="#1B1B1C" d="M19.4,12c0,0.2,0,0.2-0.2,0.2h-1.7c-0.2,0-0.2-0.1-0.2-0.2V6.7c0-0.7-0.1-1.5-0.7-1.5
		c-0.7,0-1.3,0.5-1.5,0.7V12c0,0.2,0,0.2-0.2,0.2h-1.7c-0.2,0-0.2-0.1-0.2-0.2V6.7c0-0.7-0.1-1.5-0.7-1.5c-0.7,0-1.3,0.5-1.5,0.7V12
		c0,0.2,0,0.2-0.2,0.2H8.4c-0.2,0-0.2-0.1-0.2-0.2V6.8c0-2.5-0.3-2.3-0.3-2.7c0-0.1,0.1-0.2,0.2-0.2l1.3-0.4c0.1,0,0.2-0.1,0.3-0.1
		c0.2,0,0.4,0.4,0.6,1.2c0.5-0.5,1.3-1.2,2.7-1.2c0.8,0,1.6,0.5,1.8,1.2c0.5-0.5,1.3-1.2,2.7-1.2c1.6,0,2,1.2,2,2.8V12z"/></g><g><path fill="#1B1B1C" d="M25.9,12.5c-0.1,0-0.2,0.1-0.3,0.1c-0.2,0-0.4-0.3-0.6-1c-0.5,0.4-1.3,1-2.7,1c-1,0-2.3-0.4-2.3-2.6V4
		c0-0.2,0.1-0.3,0.3-0.3l1.5-0.3c0.1,0,0.2-0.1,0.3-0.1c0.1,0,0.1,0.1,0.1,0.4v5.6c0,0.7,0.1,1.5,1,1.5c0.7,0,1.3-0.4,1.5-0.5V4
		c0-0.2,0.1-0.3,0.3-0.3l1.5-0.3c0.1,0,0.2-0.1,0.3-0.1c0.1,0,0.1,0.1,0.1,0.4v5.5c0,2.5,0.3,2.3,0.3,2.7c0,0.1-0.1,0.2-0.2,0.2
		L25.9,12.5z"/></g><g><path fill="#1B1B1C" d="M35.1,8.9c0,1.2,0.1,3,0.1,3.9c0,1.9-0.9,3.2-3.4,3.2c-1.4,0-3.6-0.6-3.6-0.9c0-0.1,0-0.2,0.1-0.4l0.3-1.1
		c0-0.1,0.1-0.2,0.2-0.2c0.2,0,1.3,0.7,2.8,0.7c1.2,0,1.4-0.5,1.4-1.5c0-0.6-0.1-1-0.1-1.2c-0.3,0.2-0.9,0.7-2.1,0.7
		c-2,0-3-1.6-3-4.3c0-2.8,1.2-4.6,3.3-4.6c1.2,0,1.8,0.5,2.1,0.8c0.1-0.2,0.4-0.8,0.6-0.8c0.1,0,0.1,0,0.2,0l1.4,0.5
		c0.1,0,0.2,0.1,0.2,0.2c0,0.2-0.5,0.9-0.5,2.2V8.9z M33,5.7c-0.2-0.2-0.6-0.5-1.4-0.5c-1.1,0-1.5,1-1.5,2.7c0,1.6,0.4,2.6,1.4,2.6
		c0.9,0,1.3-0.4,1.5-0.6V5.7z"/></g><g><path fill="#1B1B1C" d="M46,11.9c0,0.3-0.1,0.4-0.4,0.4h-1.5c-0.3,0-0.4-0.1-0.4-0.4L43.6,6c0-0.6,0-2.2,0-2.8h0
		c-0.1,0.6-0.4,2.1-0.6,2.7l-1.1,3.4c-0.1,0.2-0.1,0.3-0.4,0.3h-1.1C40,9.6,40,9.6,40,9.3l-1-3.4c-0.2-0.6-0.5-2.1-0.6-2.7h0
		c0,0.6,0,2.2,0,2.8l-0.2,5.9c0,0.3-0.1,0.4-0.4,0.4h-1.3c-0.3,0-0.4-0.1-0.4-0.4l0.5-11.3c0-0.3,0.1-0.4,0.4-0.4h1.7
		c0.3,0,0.3,0,0.4,0.3L40.4,5c0.2,0.7,0.4,1.4,0.5,2.1h0c0.1-0.7,0.2-0.9,0.6-2.1L43,0.6c0.1-0.2,0.1-0.3,0.4-0.3h1.7
		c0.3,0,0.3,0.1,0.4,0.6L46,11.9z"/></g><g><path fill="#1B1B1C" d="M52.5,12.5c-0.1,0-0.2,0.1-0.3,0.1c-0.2,0-0.4-0.3-0.6-1c-0.5,0.4-1.3,1-2.7,1c-1,0-2.3-0.4-2.3-2.6V4
		c0-0.2,0.1-0.3,0.3-0.3l1.5-0.3c0.1,0,0.2-0.1,0.3-0.1c0.1,0,0.1,0.1,0.1,0.4v5.6c0,0.7,0.1,1.5,1,1.5c0.7,0,1.3-0.4,1.5-0.5V4
		c0-0.2,0.1-0.3,0.3-0.3l1.5-0.3c0.1,0,0.2-0.1,0.3-0.1c0.1,0,0.1,0.1,0.1,0.4v5.5c0,2.5,0.3,2.3,0.3,2.7c0,0.1-0.1,0.2-0.2,0.2
		L52.5,12.5z"/></g><g><path fill="#1B1B1C" d="M61.6,8.9c0,1.2,0.1,3,0.1,3.9c0,1.9-0.9,3.2-3.4,3.2c-1.4,0-3.6-0.6-3.6-0.9c0-0.1,0-0.2,0.1-0.4l0.3-1.1
		c0-0.1,0.1-0.2,0.2-0.2c0.2,0,1.3,0.7,2.8,0.7c1.2,0,1.4-0.5,1.4-1.5c0-0.6-0.1-1-0.1-1.2c-0.3,0.2-0.9,0.7-2.1,0.7
		c-2,0-3-1.6-3-4.3c0-2.8,1.2-4.6,3.3-4.6c1.2,0,1.8,0.5,2.1,0.8c0.1-0.2,0.4-0.8,0.6-0.8c0.1,0,0.1,0,0.2,0L62,3.9
		C62,3.9,62.1,4,62.1,4c0,0.2-0.5,0.9-0.5,2.2V8.9z M59.5,5.7c-0.2-0.2-0.6-0.5-1.4-0.5c-1.1,0-1.5,1-1.5,2.7c0,1.6,0.4,2.6,1.4,2.6
		c0.9,0,1.3-0.4,1.5-0.6V5.7z"/></g></svg>
