<!DOCTYPE svg PUBLIC "-//W3C//DTD SVG 1.1//EN" "http://www.w3.org/Graphics/SVG/1.1/DTD/svg11.dtd"><svg version="1.1" id="Layer_1" xmlns="http://www.w3.org/2000/svg" xmlns:xlink="http://www.w3.org/1999/xlink" x="0px" y="0px"
	 viewBox="0 0 16 14" enable-background="new 0 0 16 14" xml:space="preserve"><path id="twitter_bird_1_" fill="#1B1B1C" d="M14.4,4.6c0.6-0.7,1.1-0.8,1.5-0.8h0l0,0c-0.6,0-1.2-0.6-1.8-0.6
	c0.7-0.4,1.2-1.7,1.4-2.5c-0.6,0.4-1.3,0.4-2,0.6C12.9,0.6,12.1,0,11.2,0C9.5,0,8.1,1.5,8.1,3.4c0,0.3,0,0.5,0.1,0.8
	c-2.6-0.1-5-1.5-6.4-3.7C1.4,1,1.3,1.7,1.3,2.3c0,1.3-0.1,2.3,0.7,2.9C1.5,5.2,0,5,0,4.8c0,0,0,0,0,0C0,6.6,1.8,8,3.2,8.3
	C3,8.4,3,8.5,2.7,8.5c-0.2,0-0.2,0-0.4-0.1c0.4,1.4,1.7,2.4,3,2.6c-1.1,0.9-2.4,1.5-3.9,1.5c-0.3,0-0.5,0-0.7-0.1
	c1.4,1,3.1,1.7,4.8,1.6C11.3,14,14.4,9.3,14.4,4.6"/></svg>