<!DOCTYPE svg PUBLIC "-//W3C//DTD SVG 1.1//EN" "http://www.w3.org/Graphics/SVG/1.1/DTD/svg11.dtd"><svg version="1.1" id="Layer_1" xmlns="http://www.w3.org/2000/svg" xmlns:xlink="http://www.w3.org/1999/xlink" x="0px" y="0px"
	 viewBox="0 0 17.3 15" enable-background="new 0 0 17.3 15" xml:space="preserve">
<path fill="#1B1B1C" d="M17.3,3.5c-0.1,1.7-1.3,4-3.5,6.9c-2.4,3.1-4.4,4.6-6,4.6c-1,0-1.9-0.9-2.6-2.8c-0.5-1.7-0.9-3.4-1.4-5.1
	C3.3,5.2,2.8,4.3,2.2,4.3C2,4.3,1.6,4.5,0.8,5.1L0,4c0.9-0.8,1.7-1.5,2.5-2.3c1.1-1,2-1.5,2.6-1.6C6.4,0.1,7.3,1,7.6,3
	c0.3,2.1,0.6,3.5,0.7,4c0.4,1.8,0.8,2.7,1.3,2.7c0.4,0,0.9-0.6,1.6-1.7c0.7-1.1,1.1-2,1.2-2.6c0.1-1-0.3-1.5-1.2-1.5
	c-0.4,0-0.8,0.1-1.3,0.3c0.9-2.8,2.5-4.1,4.9-4.1C16.6,0.1,17.4,1.2,17.3,3.5z"/>
</svg>