<!DOCTYPE svg PUBLIC "-//W3C//DTD SVG 1.1//EN" "http://www.w3.org/Graphics/SVG/1.1/DTD/svg11.dtd"><svg version="1.1" id="Layer_1" xmlns="http://www.w3.org/2000/svg" xmlns:xlink="http://www.w3.org/1999/xlink" x="0px" y="0px"
	 viewBox="0 0 40.7 17" enable-background="new 0 0 40.7 17" xml:space="preserve">
<path fill="#1B1B1C" d="M15.2,13.8h-1.5v-0.9c-0.6,0.7-1.1,1-1.6,1c-0.5,0-0.8-0.2-1-0.6c-0.1-0.2-0.2-0.6-0.2-1.2V5.5h1.5v6.1
	c0,0.3,0,0.5,0,0.6c0,0.2,0.1,0.3,0.3,0.3c0.3,0,0.6-0.3,0.9-0.7V5.5h1.5V13.8"/><g><defs><rect id="SVGID_1_" x="0" width="40.7" height="17"/></defs><clipPath id="SVGID_2_"><use xlink:href="#SVGID_1_"  overflow="visible"/></clipPath><path clip-path="url(#SVGID_2_)" fill="#1B1B1C" d="M9.8,8.2c0-0.9-0.2-1.5-0.5-2C8.9,5.7,8.2,5.5,7.6,5.5c-0.7,0-1.3,0.2-1.7,0.8
		c-0.3,0.4-0.5,1.1-0.5,2l0,2.9c0,0.9,0.2,1.5,0.5,1.9c0.4,0.6,1.1,0.9,1.7,0.9s1.3-0.3,1.7-0.9c0.3-0.4,0.5-1,0.5-1.9V8.2
		 M8.2,11.3c0.1,0.8-0.2,1.2-0.7,1.2c-0.5,0-0.7-0.4-0.7-1.2V8.1C6.8,7.3,7.1,6.9,7.6,6.9s0.7,0.4,0.7,1.2L8.2,11.3z"/><path clip-path="url(#SVGID_2_)" fill="#1B1B1C" d="M3.7,9.3v4.5H2V9.3c0,0-1.7-5.5-2-6.5h1.7l1.1,4.3L4,2.8h1.7L3.7,9.3"/></g><g><path fill="#1B1B1C" d="M40.3,2.7C40,1.4,39,0.5,37.7,0.3C34.7,0,31.6,0,28.6,0c-3,0-6.1,0-9.1,0.3c-1.3,0.1-2.3,1.1-2.6,2.4
		c-0.4,1.8-0.4,3.9-0.4,5.8c0,1.9,0,3.9,0.4,5.8c0.3,1.3,1.4,2.3,2.6,2.4c3,0.3,6.1,0.3,9.1,0.3c3,0,6.1,0,9.1-0.3
		c1.3-0.1,2.3-1.1,2.6-2.4c0.4-1.8,0.4-3.9,0.4-5.8C40.7,6.6,40.7,4.6,40.3,2.7z M23.3,4.4h-1.8v9.4h-1.6V4.4h-1.7V2.9h5.1h0V4.4z
		 M27.8,13.8h-1.5v-0.9c-0.6,0.7-1.1,1-1.7,1c-0.5,0-0.8-0.2-1-0.6c-0.1-0.2-0.1-0.6-0.1-1.2V5.6H25v6c0,0.3,0,0.5,0,0.6
		c0,0.2,0.1,0.3,0.3,0.3c0.3,0,0.6-0.2,0.9-0.7V5.6h1.5V13.8z M33.4,11.3c0,0.8-0.1,1.3-0.1,1.6c-0.2,0.6-0.6,0.9-1.2,0.9
		c-0.5,0-1-0.3-1.5-0.9v0.8H29V2.9h1.5v3.6c0.5-0.6,1-0.9,1.5-0.9c0.6,0,1,0.3,1.2,0.9c0.1,0.3,0.1,0.9,0.1,1.6V11.3z M38.9,10H36
		v1.4c0,0.8,0.2,1.1,0.8,1.1c0.4,0,0.6-0.2,0.7-0.6c0-0.1,0-0.4,0-1h1.5v0.2c0,0.5,0,0.8,0,0.9c-0.1,0.3-0.2,0.6-0.3,0.9
		c-0.4,0.6-1,0.9-1.8,0.9c-0.8,0-1.4-0.3-1.8-0.8c-0.3-0.4-0.5-1-0.5-1.9V8.3c0-0.9,0.1-1.5,0.5-1.9c0.4-0.6,1-0.8,1.8-0.8
		c0.7,0,1.3,0.3,1.7,0.8c0.3,0.4,0.5,1,0.5,1.9h0V10z"/><path fill="#1B1B1C" d="M31.2,6.9c-0.2,0-0.5,0.1-0.7,0.4v5c0.2,0.2,0.5,0.4,0.7,0.4c0.4,0,0.6-0.4,0.6-1.1V8
		C31.9,7.2,31.7,6.9,31.2,6.9z"/><path fill="#1B1B1C" d="M36.7,6.9C36.2,6.9,36,7.2,36,8v0.8h1.5V8C37.5,7.2,37.2,6.9,36.7,6.9z"/></g></svg>